<?xml version="1.0" encoding="utf-8"?>
<!-- Svg Vector Icons : http://www.onlinewebfonts.com/icon -->
<!DOCTYPE svg PUBLIC "-//W3C//DTD SVG 1.1//EN" "http://www.w3.org/Graphics/SVG/1.1/DTD/svg11.dtd">
<svg version="1.1" xmlns="http://www.w3.org/2000/svg" xmlns:xlink="http://www.w3.org/1999/xlink" x="0px" y="0px" viewBox="0 0 256 256" enable-background="new 0 0 256 256" xml:space="preserve">
<metadata> Svg Vector Icons : http://www.onlinewebfonts.com/icon </metadata>
<g><g><g><path fill="#000000" d="M208.7,16.2H72.1c-20.5,0-37.3,16.7-37.3,37.3v12.4H22.4c-6.9,0-12.4,5.6-12.4,12.4s5.6,12.4,12.4,12.4h12.4v24.9H22.4c-6.9,0-12.4,5.5-12.4,12.4s5.6,12.4,12.4,12.4h12.4v24.9H22.4c-6.9,0-12.4,5.6-12.4,12.4c0,6.9,5.6,12.4,12.4,12.4h12.4v12.4c0,20.5,16.7,37.3,37.3,37.3h136.6c20.5,0,37.3-16.7,37.3-37.3V53.5C246,32.9,229.3,16.2,208.7,16.2L208.7,16.2z M59.7,53.5c0-6.8,5.6-12.4,12.4-12.4v24.9H59.7V53.5L59.7,53.5z M59.7,90.7h12.4v24.9H59.7V90.7z M59.7,140.4h12.4v24.9H59.7V140.4z M59.7,202.5v-12.4h12.4v24.8C65.3,214.9,59.7,209.4,59.7,202.5L59.7,202.5z M221.1,202.5c0,6.8-5.6,12.4-12.4,12.4H84.5V41h124.2c6.8,0,12.4,5.6,12.4,12.4L221.1,202.5L221.1,202.5z"/><path fill="#000000" d="M171.5,109.3c0,13.7-11.1,24.9-24.9,24.9s-24.9-11.1-24.9-24.9c0-13.7,11.1-24.9,24.9-24.9S171.5,95.6,171.5,109.3z"/><path fill="#000000" d="M146.6,144.8c-19.4,0-31,8.9-31,17.7c0,4.4,11.7,8.9,31,8.9c18.2,0,31-4.4,31-8.9C177.7,153.7,165.5,144.8,146.6,144.8z"/></g></g></g>
</svg>