<?xml version="1.0" encoding="utf-8"?>
<!-- Svg Vector Icons : http://www.onlinewebfonts.com/icon -->
<!DOCTYPE svg PUBLIC "-//W3C//DTD SVG 1.1//EN" "http://www.w3.org/Graphics/SVG/1.1/DTD/svg11.dtd">
<svg version="1.1" xmlns="http://www.w3.org/2000/svg" xmlns:xlink="http://www.w3.org/1999/xlink" x="0px" y="0px" viewBox="0 0 256 256" enable-background="new 0 0 256 256" xml:space="preserve">
<metadata> Svg Vector Icons : http://www.onlinewebfonts.com/icon </metadata>
<g><g><path fill="#000000" d="M165.8,10.2V10h-0.2h-14.9H52.4c-6.1,0-11.8,2.3-16,6.5c-4.3,4.2-6.6,9.7-6.6,15.7v191.7c0,5.9,2.4,11.5,6.6,15.7c4.3,4.2,10,6.5,16,6.5h151.3c6.1,0,11.8-2.3,16-6.5c4.3-4.2,6.6-9.7,6.6-15.7V83.7V69L165.8,10.2z M165.8,31.1L204.7,69h-31.3c-2,0-3.9-0.8-5.3-2.2c-1.4-1.4-2.2-3.3-2.2-5.2V31.1L165.8,31.1z M211.2,223.9c0,2-0.8,3.8-2.2,5.2c-1.4,1.4-3.3,2.2-5.3,2.2H52.4c-2,0-3.9-0.8-5.3-2.2c-1.4-1.4-2.2-3.3-2.2-5.2V32.1c0-2,0.8-3.8,2.2-5.2c1.4-1.4,3.3-2.2,5.3-2.2h98.3v36.9c0,5.9,2.4,11.5,6.6,15.7c4.3,4.2,10,6.5,16,6.5h37.8L211.2,223.9L211.2,223.9z M128,46.9H67.5v14.8H128V46.9z M128,83.7H67.5v14.7H128V83.7z M67.5,135.4h121v-14.8h-121V135.4z M67.5,172.2h121v-14.7h-121V172.2z M67.5,209.1h121v-14.7h-121V209.1z"/><path fill="#000000" d="M165.8,10.2V10h-0.2h-14.9H52.4c-6.1,0-11.8,2.3-16,6.5c-4.3,4.2-6.6,9.7-6.6,15.7v191.7c0,5.9,2.4,11.5,6.6,15.7c4.3,4.2,10,6.5,16,6.5h151.3c6.1,0,11.8-2.3,16-6.5c4.3-4.2,6.6-9.7,6.6-15.7V83.7V69L165.8,10.2z M165.8,31.1L204.7,69h-31.3c-2,0-3.9-0.8-5.3-2.2c-1.4-1.4-2.2-3.3-2.2-5.2V31.1L165.8,31.1z M211.2,223.9c0,2-0.8,3.8-2.2,5.2c-1.4,1.4-3.3,2.2-5.3,2.2H52.4c-2,0-3.9-0.8-5.3-2.2c-1.4-1.4-2.2-3.3-2.2-5.2V32.1c0-2,0.8-3.8,2.2-5.2c1.4-1.4,3.3-2.2,5.3-2.2h98.3v36.9c0,5.9,2.4,11.5,6.6,15.7c4.3,4.2,10,6.5,16,6.5h37.8L211.2,223.9L211.2,223.9z M128,46.9H67.5v14.8H128V46.9z M128,83.7H67.5v14.7H128V83.7z M67.5,135.4h121v-14.8h-121V135.4z M67.5,172.2h121v-14.7h-121V172.2z M67.5,209.1h121v-14.7h-121V209.1z"/></g></g>
</svg>