<?xml version="1.0" encoding="utf-8"?>
<!-- Svg Vector Icons : http://www.onlinewebfonts.com/icon -->
<!DOCTYPE svg PUBLIC "-//W3C//DTD SVG 1.1//EN" "http://www.w3.org/Graphics/SVG/1.1/DTD/svg11.dtd">
<svg version="1.1" xmlns="http://www.w3.org/2000/svg" xmlns:xlink="http://www.w3.org/1999/xlink" x="0px" y="0px" viewBox="0 0 256 256" enable-background="new 0 0 256 256" xml:space="preserve">
<metadata> Svg Vector Icons : http://www.onlinewebfonts.com/icon </metadata>
<g><g><g><path fill="#000000" d="M66.6,11.6c-2.5,2.1-2.7,5.6-0.4,7.8l1.4,1.5h60c59.2,0,60.1,0,61.6-1.2c3-2.4,2.6-7-0.7-8.8c-1.6-0.8-8.8-0.9-61-0.9H68.5L66.6,11.6z"/><path fill="#000000" d="M85.2,34.6c-3.1,1.9-3.6,3.6-3.6,12.7c0,25.7,4.3,44.5,13.3,59.1c3.5,5.6,11.3,14.4,16.2,18.1c3.4,2.7,3.9,4.3,1.4,6c-3,1.9-11.1,10.1-14.1,14.1c-11.2,15.2-15.9,31.9-16.8,59.5c-0.4,14.2-0.1,15.6,3.6,17.6c1.8,1,4.8,1.1,42.4,1.1c37.7,0,40.6-0.1,42.1-1.1c3.5-2.3,3.7-3.3,3.6-14.6c-0.5-36.6-8.5-57.5-28.3-74.5c-2.4-2.1-4.4-4.1-4.4-4.5c0-0.4,2.1-2.5,4.6-4.5c19.1-15.8,27.6-38.1,28.1-73.6c0.1-9.5,0.1-10.7-1-12.5c-2.3-3.9-0.8-3.8-45.4-3.8C90.9,33.6,86.6,33.7,85.2,34.6z M162.9,44.7c0.5,1.4-0.9,22.6-1.9,28.5c-3.3,19.4-11.7,34-25.3,44.1c-4.2,3.1-5,4.8-5.1,10.4c-0.1,6.5,0.6,7.8,5.3,11.3c13.6,10.1,22,25.2,25.2,45c1,6,2.2,27,1.7,27.5c-0.1,0.2-16.1,0.4-35.3,0.5l-35.1,0.2l0.4-10.8c1-30.2,8.5-47.9,25.8-61.8c5.7-4.5,6.6-6.2,6.6-12.1c0-5.1-1-6.9-6.6-11.3c-7.8-6.3-12.9-12.4-17.1-20.9c-5.7-11.2-8.9-28.1-8.9-46.2v-5.4h35C158,43.8,162.6,43.9,162.9,44.7z"/><path fill="#000000" d="M103.5,54.1c-0.7,0.7-1.5,2-1.8,2.9c-0.6,2.5,0.9,15.8,2.5,22.3c1.9,7.4,5.7,15.4,7.8,16.4c2.3,1,4.2,0.9,5.9-0.5c2.4-1.9,2.6-4.2,0.5-8.3c-3.5-7-5.1-13.6-6-24.8c-0.5-5.3-0.8-6.4-1.9-7.7C108.8,52.4,105.4,52.3,103.5,54.1z"/><path fill="#000000" d="M111.5,161.1c-1.5,1.1-4.5,7-6.2,12.4c-1.8,5.3-3,12.8-3.5,20.3l-0.4,6.2l1.9,1.9c1.7,1.6,2.2,1.9,4.1,1.6c3.8-0.7,4.5-1.9,5.1-9c0.8-10.9,2.4-17.4,5.7-24.3c2.3-4.8,2.3-6.9-0.2-8.8C116.3,160.1,113.2,159.9,111.5,161.1z"/><path fill="#000000" d="M67.5,235.9c-1.9,1-2.7,2.4-2.7,4.5c0,2.8,0.5,3.8,2.5,4.8c1.4,0.8,10.1,0.9,61.1,0.9h59.5l1.7-1.4c1.3-1.1,1.7-1.9,1.7-4c0-2.1-0.4-2.8-1.7-4l-1.7-1.4h-59.6C86.3,235.2,68.3,235.4,67.5,235.9z"/></g></g></g>
</svg>